<?xml version="1.0" encoding="UTF-8"?><svg id="b" xmlns="http://www.w3.org/2000/svg" width="240" height="143.46" viewBox="0 0 240 143.46"><defs><style>.d{fill:#ec008c;}</style></defs><g id="c"><path class="d" d="m2.83,113.89c1.21,1.14,2.51,1.78,3.88,1.92,1.38.13,2.33-.11,2.83-.69.5-.59.62-1.19.34-1.8-.28-.61-1.58-1.15-3.93-1.63-2.35-.47-3.83-1.42-4.45-2.85-.62-1.43-.49-2.92.39-4.5.88-1.57,2.51-2.39,4.87-2.46,2.36-.06,4.47.78,6.34,2.51l-2.36,2.36c-1.32-1.04-2.62-1.58-3.93-1.59-1.31-.02-2.04.42-2.19,1.3-.15.89.56,1.48,2.12,1.82,1.56.33,3.02.82,4.4,1.47,1.37.66,2.13,1.82,2.29,3.5.15,1.68-.31,3.03-1.36,4.08-1.04,1.06-2.48,1.61-4.32,1.68-1.84.06-3.38-.2-4.63-.79-1.24-.59-2.11-1.28-2.6-2.08l2.3-2.24Z"/><path class="d" d="m19.12,102.14h7.89c1.81,0,3.2.54,4.17,1.61.97,1.09,1.4,2.56,1.3,4.41-.1,1.85-1.13,3.25-3.09,4.2l3.14,6.39h-3.87l-2.96-5.95-3.29.03v5.92h-3.29v-16.61Zm3.29,3.29v4.28h4.28c.72,0,1.31-.2,1.77-.61.46-.42.69-.94.69-1.6s-.23-1.16-.69-1.53c-.46-.36-1.02-.55-1.67-.55h-4.37Z"/><path class="d" d="m39.07,102.14h3.28v16.61h-3.28v-16.61Z"/><path class="d" d="m48.98,102.14h7.57c3.07.33,4.88,1.8,5.43,4.44.1,1.97-.28,3.51-1.16,4.6-1.12,1.12-2.62,1.68-4.52,1.68h-4.03v5.9h-3.28v-16.61Zm3.28,3.29v4.28h4.28c.62-.03,1.11-.25,1.47-.69.37-.42.54-.94.54-1.57s-.21-1.11-.64-1.47c-.42-.36-.92-.55-1.48-.55h-4.18Z"/><path class="d" d="m71.88,102.14h3.14l6.32,16.61h-3.68l-1.49-3.61h-5.91l-1.15,3.61h-3.63l6.42-16.61Zm-.53,9.84l3.82.03-1.96-5.6-1.87,5.57Z"/><path class="d" d="m84.98,102.14h12.84v3.29h-4.77v13.33h-3.45v-13.33h-4.61v-3.29Z"/><path class="d" d="m103.62,102.14h3.3v9.87c-.03.86.28,1.7.94,2.52.66.82,1.51,1.24,2.56,1.28,1.02,0,1.84-.37,2.46-1.11.63-.74.94-1.58.95-2.52v-10.04h3.3v10.53c-.08,1.7-.72,3.17-1.93,4.44-1.21,1.27-2.77,1.91-4.67,1.94-1.94.07-3.58-.64-4.92-2.1-1.35-1.48-2.01-2.9-1.98-4.27v-10.53Z"/><path class="d" d="m123.73,102.14h3.12l4.54,10.17,4.57-10.17h3.23v16.61h-3.29v-9.38l-4.56,9.63-4.48-9.44v9.19h-3.14v-16.61Z"/><path class="d" d="m.36,126.55h3.29v9.87c-.02.86.29,1.7.95,2.52.66.82,1.5,1.24,2.56,1.28,1.02,0,1.83-.37,2.46-1.1.62-.75.93-1.58.95-2.52v-10.05h3.29v10.53c-.07,1.7-.72,3.18-1.93,4.44-1.21,1.26-2.77,1.91-4.67,1.93-1.93.08-3.57-.63-4.91-2.1-1.34-1.49-2.01-2.9-1.98-4.28v-10.53Z"/><path class="d" d="m18.94,126.55h3.3l7.13,10.03v-10.03h3.3v16.62h-3.3l-7.13-10.91v10.91h-3.3v-16.62Z"/><path class="d" d="m38.78,126.55h3.28v16.62h-3.28v-16.62Z"/><path class="d" d="m46.19,126.55h4.33l3.49,10.72,4.08-10.72h3.78l-6.2,16.62h-3.25l-6.24-16.62Z"/><path class="d" d="m66.42,126.55h11.35v3.3h-8.06v2.97h4.78v3.12h-4.78v4.12h8.55v3.12h-11.85v-16.62Z"/><path class="d" d="m84.74,126.55h7.9c1.81,0,3.19.54,4.17,1.62.97,1.09,1.4,2.55,1.3,4.41-.1,1.85-1.13,3.25-3.1,4.2l3.15,6.39h-3.88l-2.96-5.95-3.3.03v5.92h-3.28v-16.62Zm3.28,3.3v4.28h4.28c.72,0,1.31-.21,1.77-.61.46-.41.69-.94.69-1.6s-.23-1.16-.69-1.52c-.46-.36-1.02-.54-1.67-.54h-4.38Z"/><path class="d" d="m105.48,138.3c1.21,1.15,2.51,1.79,3.88,1.92,1.37.12,2.32-.1,2.83-.7.5-.58.62-1.18.34-1.79-.28-.61-1.59-1.15-3.93-1.62-2.35-.48-3.83-1.43-4.45-2.85-.62-1.43-.49-2.92.39-4.49.89-1.58,2.51-2.4,4.87-2.47,2.36-.07,4.47.78,6.35,2.51l-2.36,2.36c-1.32-1.05-2.62-1.59-3.93-1.6-1.32-.02-2.05.42-2.19,1.3-.15.89.56,1.49,2.11,1.82,1.56.32,3.03.82,4.41,1.47,1.37.66,2.13,1.82,2.28,3.49.15,1.68-.3,3.04-1.35,4.08-1.05,1.05-2.49,1.61-4.33,1.68-1.83.06-3.37-.2-4.62-.79-1.25-.58-2.11-1.29-2.59-2.08l2.3-2.25Z"/><path class="d" d="m121.77,126.55h3.28v16.62h-3.28v-16.62Z"/><path class="d" d="m131.18,126.55h12.84v3.3h-4.77v13.32h-3.45v-13.32h-4.61v-3.3Z"/><path class="d" d="m147.92,126.55h3.89l4.22,7.03,4.17-7.03h3.75l-6.22,10.2v6.42h-3.46v-6.57l-6.35-10.05Z"/><path d="m58.89,47.63c-2.28-2.59-5.43-5.02-9.34-7.25-3.85-2.18-8.87-4.07-14.89-5.57-3.74-.96-6.79-1.85-9.06-2.69-2.1-.77-3.74-1.54-4.82-2.28-.79-.53-1.33-1.11-1.56-1.62-.3-.65-.45-1.4-.45-2.3,0-2.45.96-4.36,2.99-5.99,2.21-1.77,5.5-2.68,9.77-2.68,4.02,0,7.12.92,9.48,2.78,2.36,1.89,3.84,4.19,4.5,7.1l.75,3.27,15.76-3.41-.38-3.09c-.44-3.49-1.52-6.72-3.22-9.65-1.69-2.9-3.9-5.44-6.58-7.56-2.64-2.09-5.74-3.75-9.19-4.93-3.45-1.19-7.19-1.78-11.11-1.78-4.38,0-8.46.64-12.14,1.89-3.73,1.28-6.96,3.05-9.62,5.27-2.72,2.3-4.87,5.09-6.35,8.29-1.5,3.2-2.26,6.73-2.26,10.47,0,4.53,1.01,8.37,3,11.42,1.89,2.9,4.33,5.32,7.27,7.21,2.78,1.79,5.95,3.24,9.42,4.31,3.27,1,6.51,1.91,9.63,2.66,11.28,2.83,17,6.89,17,12.07,0,1.19-.31,2.26-.93,3.29-.71,1.16-1.73,2.23-3.02,3.17-1.35.99-2.98,1.78-4.85,2.34-1.91.59-3.98.88-6.12.88-4.27,0-7.74-.97-10.64-2.98-2.83-1.97-4.62-4.25-5.46-7.02l-.89-2.96-15.58,3.19.41,3.13c.45,3.45,1.65,6.71,3.6,9.68,1.88,2.87,4.27,5.4,7.12,7.51,2.84,2.12,6.14,3.78,9.82,4.96,3.67,1.16,7.57,1.76,11.62,1.76,4.39,0,8.57-.7,12.46-2.08,3.88-1.38,7.32-3.27,10.21-5.63,2.96-2.4,5.34-5.26,7.07-8.5,1.78-3.32,2.67-6.94,2.67-10.74,0-2.45-.42-5.04-1.23-7.71-.86-2.81-2.5-5.58-4.86-8.25Z"/><path d="m140.3,10.1c-2.79-2.79-6.11-5.03-9.88-6.64-3.78-1.62-7.85-2.44-12.08-2.44h-34.8v87.47h17.5v-25.27h17.3c4.24,0,8.31-.82,12.08-2.43,3.77-1.61,7.09-3.85,9.88-6.65,2.8-2.78,5.05-6.1,6.7-9.86,1.65-3.78,2.5-7.89,2.5-12.22s-.85-8.32-2.5-12.11c-1.64-3.75-3.9-7.07-6.7-9.86Zm-21.97,35.87h-17.3v-27.68h17.3c1.89,0,3.6.34,5.21,1.07,1.66.73,3.14,1.74,4.38,2.98,1.24,1.24,2.22,2.72,2.92,4.38.69,1.67,1.04,3.46,1.04,5.34s-.35,3.8-1.04,5.45c-.69,1.66-1.67,3.14-2.91,4.36-1.25,1.27-2.72,2.27-4.38,3.01-1.62.72-3.33,1.07-5.22,1.07Z"/><path d="m222.51,1.02v48.45c0,.96-.07,2.23-.21,3.79-.14,1.5-.43,3.14-.88,4.88-.43,1.7-1.09,3.45-1.97,5.18-.8,1.6-1.92,3.07-3.31,4.39-1.4,1.3-3.19,2.39-5.33,3.26-2.13.84-4.78,1.29-7.89,1.29-13.36,0-19.58-7.24-19.58-22.78V1.02h-17.62v48.45c0,12.59,3.26,22.49,9.67,29.45,6.48,7.03,15.75,10.6,27.53,10.6,5.5,0,10.61-.96,15.17-2.83,4.62-1.89,8.61-4.64,11.86-8.18,3.22-3.52,5.74-7.8,7.47-12.72,1.71-4.85,2.58-10.34,2.58-16.32V1.02h-17.49Z"/><rect class="d" x="165.72" y="102.14" width="74.28" height="16.86"/></g></svg>